<?xml version="1.0" standalone="no"?>
<!DOCTYPE svg PUBLIC "-//W3C//DTD SVG 20010904//EN"
 "http://www.w3.org/TR/2001/REC-SVG-20010904/DTD/svg10.dtd">
<svg version="1.0" xmlns="http://www.w3.org/2000/svg"
 width="575.000000pt" height="471.000000pt" viewBox="0 0 575.000000 471.000000"
 preserveAspectRatio="xMidYMid meet">

<g transform="translate(0.000000,471.000000) scale(0.100000,-0.100000)"
fill="#000000" stroke="none">
<path d="M2745 4113 c-790 -65 -1469 -586 -1753 -1345 -101 -268 -148 -596
-123 -855 32 -330 136 -629 317 -913 71 -111 178 -248 200 -257 8 -3 59 23
114 57 90 56 99 64 87 79 -333 388 -496 856 -458 1317 30 362 148 670 372 975
71 97 231 257 339 339 619 469 1459 472 2080 5 63 -47 80 -55 105 -51 39 7
225 63 232 70 16 16 -287 252 -422 327 -161 91 -388 178 -559 215 -152 33
-386 49 -531 37z"/>
<path d="M5015 3603 c-24 -13 -473 -219 -653 -299 l-54 -24 97 -65 c53 -35
107 -73 120 -83 l24 -19 -48 -84 c-288 -502 -672 -876 -1246 -1216 -95 -56
-459 -237 -577 -287 -214 -91 -448 -171 -728 -249 -220 -62 -273 -75 -385 -97
-107 -21 -161 -39 -80 -26 22 3 105 13 185 21 290 28 532 74 840 157 325 87
561 146 700 173 158 31 167 34 285 100 550 312 956 716 1250 1243 22 39 45 72
52 72 7 0 27 -13 45 -28 18 -15 53 -43 78 -60 54 -39 52 -42 68 113 7 61 26
233 42 383 17 151 30 278 30 283 0 13 -10 11 -45 -8z"/>
<path d="M3795 3300 c-60 -16 -136 -33 -168 -40 -72 -14 -116 -51 -146 -121
-22 -50 -23 -63 -26 -523 -1 -259 0 -484 4 -500 l6 -28 80 57 c104 74 249 192
336 273 l69 64 0 424 0 424 -22 -1 c-13 0 -72 -14 -133 -29z"/>
<path d="M3184 2845 c-281 -65 -305 -77 -343 -180 -20 -53 -21 -75 -21 -496
l0 -440 23 7 c47 14 255 126 410 220 l47 29 0 442 c0 244 -3 443 -7 442 -5 0
-53 -11 -109 -24z"/>
<path d="M4720 2556 c-11 -21 -9 -43 10 -148 43 -232 38 -500 -13 -725 l-24
-103 28 0 c31 0 38 15 63 140 48 241 47 470 -3 704 -17 77 -34 143 -39 148 -5
5 -14 -2 -22 -16z"/>
<path d="M2570 2399 c-212 -45 -291 -71 -326 -105 -55 -56 -58 -75 -61 -466
-2 -197 -2 -358 1 -358 17 0 308 109 474 177 10 4 13 83 12 384 -1 208 -5 381
-8 383 -4 2 -45 -5 -92 -15z"/>
<path d="M4560 1364 c-14 -2 -65 -9 -115 -15 -235 -29 -543 -110 -800 -211
-287 -113 -466 -201 -753 -373 -9 -6 -39 -24 -67 -40 -183 -108 -640 -481
-640 -522 0 -10 217 -74 315 -92 300 -57 566 -48 845 28 411 113 804 399 1079
785 53 73 180 292 191 327 4 13 18 45 31 72 l24 47 -42 -1 c-24 -1 -54 -3 -68
-5z"/>
</g>
</svg>
